<?xml version="1.0" encoding="UTF-8"?><svg id="a" xmlns="http://www.w3.org/2000/svg" viewBox="0 0 290.11 254.39"><defs><style>.b{fill:#00517d;}</style></defs><g><polygon class="b" points="159.06 0 159.06 30.3 119.06 50 119.06 19.8 159.06 0"/><polygon class="b" points="209.06 19.8 209.06 50 169.06 30.3 169.06 0 209.06 19.8"/><polygon class="b" points="159.06 79.2 159.06 109.5 119.06 89.8 119.06 59.5 159.06 79.2"/><polygon class="b" points="209.06 59.5 209.06 89.8 169.06 109.5 169.06 79.2 209.06 59.5"/><polygon class="b" points="109.06 20 81.06 .4 81.06 110.4 109.06 90.7 109.06 20"/></g><g><g><path d="M44.07,233.34l-5.81,5.72v14.75h-3.48v-41.23h3.48v22.23l21.13-22.23h4.39l-17.28,18.35,18.61,22.88h-4.25l-16.79-20.48Z"/><path d="M89.63,249.94c-2.04,2.96-5.3,4.45-9.77,4.45-3.27,0-5.75-.95-7.45-2.85-1.7-1.9-2.57-4.71-2.61-8.43v-19.94h3.37v19.51c0,5.83,2.36,8.75,7.08,8.75s8.01-2.03,9.32-6.09v-22.17h3.4v30.64h-3.29l-.06-3.88Z"/><path d="M126.45,238.81c0,4.78-1.06,8.57-3.17,11.37-2.11,2.8-4.96,4.21-8.52,4.21-4.27,0-7.5-1.59-9.69-4.76l-.14,4.19h-3.17v-43.5h3.37v17.3c2.15-3.34,5.34-5.01,9.57-5.01,3.62,0,6.49,1.38,8.6,4.15,2.1,2.77,3.16,6.61,3.16,11.54v.51Zm-3.4-.59c0-4.04-.78-7.16-2.35-9.36-1.57-2.2-3.78-3.3-6.63-3.3-2.17,0-4.01,.53-5.52,1.6-1.51,1.07-2.65,2.63-3.43,4.69v13.82c1.7,3.85,4.7,5.78,9.01,5.78,2.79,0,4.98-1.1,6.56-3.31,1.58-2.21,2.36-5.51,2.36-9.91Z"/><path d="M145.79,254.39c-2.61,0-4.96-.64-7.07-1.93-2.11-1.28-3.74-3.07-4.91-5.37-1.17-2.29-1.76-4.87-1.76-7.72v-1.22c0-2.95,.57-5.6,1.71-7.96,1.14-2.36,2.73-4.21,4.77-5.57,2.04-1.35,4.25-2.02,6.63-2.02,3.72,0,6.67,1.27,8.85,3.81,2.18,2.54,3.27,6.01,3.27,10.41v1.9h-21.86v.65c0,3.47,1,6.37,2.99,8.68,1.99,2.31,4.5,3.47,7.52,3.47,1.81,0,3.41-.33,4.8-.99s2.65-1.72,3.78-3.17l2.12,1.61c-2.49,3.61-6.11,5.41-10.85,5.41Zm-.62-28.89c-2.55,0-4.7,.93-6.44,2.8-1.75,1.87-2.81,4.38-3.19,7.53h18.38v-.37c-.09-2.95-.93-5.34-2.52-7.19s-3.66-2.78-6.23-2.78Z"/><path d="M195.16,235.44c0,3.79-.66,7.13-1.97,10-1.31,2.87-3.19,5.08-5.62,6.63s-5.25,2.32-8.44,2.32c-4.81,0-8.7-1.72-11.67-5.17-2.96-3.45-4.45-8.1-4.45-13.95v-4.25c0-3.76,.67-7.08,2-9.98,1.33-2.9,3.21-5.13,5.65-6.68s5.24-2.34,8.41-2.34,5.97,.76,8.4,2.29c2.43,1.53,4.3,3.69,5.62,6.49s2.01,6.03,2.07,9.71v4.93Zm-3.48-4.47c0-4.97-1.12-8.85-3.37-11.67s-5.32-4.22-9.23-4.22-6.89,1.41-9.16,4.23c-2.27,2.82-3.41,6.76-3.41,11.82v4.3c0,4.89,1.13,8.76,3.4,11.63,2.27,2.86,5.34,4.29,9.23,4.29s7.02-1.41,9.23-4.23c2.21-2.82,3.31-6.75,3.31-11.8v-4.36Z"/><path d="M206.37,223.18l.11,5.24c1.15-1.89,2.59-3.33,4.3-4.32s3.62-1.49,5.69-1.49c3.29,0,5.73,.92,7.33,2.78s2.42,4.63,2.44,8.33v20.11h-3.37v-20.14c-.02-2.74-.6-4.78-1.74-6.12-1.14-1.34-2.97-2.01-5.48-2.01-2.1,0-3.95,.66-5.56,1.97-1.62,1.31-2.81,3.08-3.58,5.31v20.99h-3.37v-30.64h3.23Z"/><path d="M246.87,254.39c-2.61,0-4.96-.64-7.07-1.93-2.11-1.28-3.74-3.07-4.91-5.37-1.17-2.29-1.76-4.87-1.76-7.72v-1.22c0-2.95,.57-5.6,1.71-7.96,1.14-2.36,2.73-4.21,4.77-5.57,2.04-1.35,4.25-2.02,6.63-2.02,3.72,0,6.67,1.27,8.85,3.81,2.18,2.54,3.27,6.01,3.27,10.41v1.9h-21.86v.65c0,3.47,1,6.37,2.99,8.68,1.99,2.31,4.5,3.47,7.52,3.47,1.81,0,3.41-.33,4.8-.99,1.39-.66,2.65-1.72,3.78-3.17l2.12,1.61c-2.49,3.61-6.11,5.41-10.85,5.41Zm-.62-28.89c-2.55,0-4.7,.93-6.44,2.8-1.75,1.87-2.81,4.38-3.19,7.53h18.38v-.37c-.09-2.95-.93-5.34-2.52-7.19s-3.66-2.78-6.23-2.78Z"/></g><g><path d="M16.56,182.14c-.69-1.07-1.49-2.19-2.4-3.36-.91-1.17-1.86-2.31-2.86-3.4-1-1.09-2.03-2.13-3.1-3.12-1.07-.99-2.12-1.84-3.16-2.56v12.44H0v-27.72H5.04v11.44c.88-.88,1.8-1.82,2.76-2.82s1.91-2.01,2.86-3.04c.95-1.03,1.85-2.02,2.7-2.98s1.63-1.83,2.32-2.6h6.04c-.88,1.01-1.81,2.07-2.8,3.16-.99,1.09-2,2.19-3.04,3.3s-2.09,2.21-3.14,3.3c-1.05,1.09-2.09,2.13-3.1,3.12,1.12,.85,2.26,1.85,3.42,2.98,1.16,1.13,2.3,2.35,3.42,3.64,1.12,1.29,2.19,2.64,3.22,4.04,1.03,1.4,1.97,2.79,2.82,4.18h-5.96Z"/><path d="M41.47,182.74c-1.89,0-3.52-.27-4.88-.82-1.36-.55-2.49-1.31-3.38-2.3-.89-.99-1.55-2.15-1.98-3.48-.43-1.33-.64-2.8-.64-4.4v-17.32h5.08v16.84c0,1.25,.14,2.33,.42,3.22,.28,.89,.68,1.62,1.2,2.18,.52,.56,1.13,.97,1.84,1.24,.71,.27,1.5,.4,2.38,.4s1.68-.13,2.4-.4c.72-.27,1.34-.68,1.86-1.24,.52-.56,.92-1.29,1.2-2.18,.28-.89,.42-1.97,.42-3.22v-16.84h5.08v17.32c0,1.6-.22,3.07-.66,4.4-.44,1.33-1.11,2.49-2,3.48-.89,.99-2.03,1.75-3.42,2.3-1.39,.55-3.03,.82-4.92,.82Z"/><path d="M72.13,182.46c-1.47,0-2.95-.05-4.44-.14-1.49-.09-2.8-.29-3.92-.58v-26.92c.59-.11,1.21-.21,1.88-.3,.67-.09,1.35-.17,2.04-.22,.69-.05,1.38-.09,2.06-.12,.68-.03,1.33-.04,1.94-.04,1.68,0,3.24,.13,4.68,.38,1.44,.25,2.69,.67,3.74,1.26,1.05,.59,1.87,1.36,2.46,2.32,.59,.96,.88,2.15,.88,3.56,0,1.31-.31,2.43-.94,3.36-.63,.93-1.5,1.68-2.62,2.24,1.68,.56,2.92,1.39,3.72,2.48,.8,1.09,1.2,2.48,1.2,4.16,0,2.85-1.04,4.99-3.12,6.42-2.08,1.43-5.27,2.14-9.56,2.14Zm-3.4-16.76h3.56c1.92,0,3.43-.27,4.52-.82s1.64-1.53,1.64-2.94c0-1.33-.57-2.28-1.7-2.84s-2.61-.84-4.42-.84c-.77,0-1.46,.01-2.06,.04-.6,.03-1.11,.07-1.54,.12v7.28Zm0,3.96v8.44c.56,.05,1.16,.09,1.8,.12,.64,.03,1.23,.04,1.76,.04,1.04,0,2.01-.07,2.9-.2,.89-.13,1.67-.37,2.32-.7s1.17-.78,1.56-1.34c.39-.56,.58-1.28,.58-2.16,0-1.57-.57-2.67-1.72-3.28-1.15-.61-2.73-.92-4.76-.92h-4.44Z"/><path d="M94.93,182.14v-27.72h17.8v4.28h-12.76v6.84h11.36v4.2h-11.36v8.12h13.72v4.28h-18.76Z"/><path d="M131.04,154.14c4,0,7.06,.73,9.18,2.2,2.12,1.47,3.18,3.71,3.18,6.72,0,3.76-1.85,6.31-5.56,7.64,.51,.61,1.08,1.36,1.72,2.24,.64,.88,1.29,1.83,1.96,2.86,.67,1.03,1.31,2.08,1.92,3.16,.61,1.08,1.16,2.14,1.64,3.18h-5.64c-.51-.96-1.05-1.93-1.64-2.9-.59-.97-1.18-1.92-1.78-2.84-.6-.92-1.19-1.79-1.78-2.6-.59-.81-1.13-1.54-1.64-2.18-.37,.03-.69,.04-.96,.04h-3.2v10.48h-5.04v-27.32c1.23-.27,2.53-.45,3.92-.54,1.39-.09,2.63-.14,3.72-.14Zm.36,4.36c-1.07,0-2.05,.04-2.96,.12v8.96h2.2c1.23,0,2.31-.07,3.24-.2s1.71-.37,2.34-.72c.63-.35,1.1-.81,1.42-1.4,.32-.59,.48-1.33,.48-2.24,0-.85-.16-1.57-.48-2.16-.32-.59-.78-1.05-1.38-1.4-.6-.35-1.31-.59-2.14-.74-.83-.15-1.73-.22-2.72-.22Z"/><path d="M160.29,154.42c.59,1.01,1.24,2.25,1.96,3.72,.72,1.47,1.45,3.01,2.2,4.62,.75,1.61,1.49,3.25,2.22,4.92,.73,1.67,1.41,3.21,2.02,4.62,.61-1.41,1.28-2.95,2-4.62,.72-1.67,1.45-3.31,2.2-4.92,.75-1.61,1.48-3.15,2.2-4.62,.72-1.47,1.37-2.71,1.96-3.72h4.54c.24,2.03,.47,4.18,.69,6.46,.22,2.28,.41,4.61,.59,7,.18,2.39,.34,4.79,.49,7.2,.15,2.41,.28,4.77,.39,7.06h-4.96c-.11-3.23-.24-6.55-.39-9.96-.15-3.41-.37-6.72-.67-9.92-.29,.61-.64,1.35-1.04,2.2-.4,.85-.83,1.78-1.28,2.78-.45,1-.91,2.03-1.38,3.1-.47,1.07-.92,2.1-1.36,3.1-.44,1-.85,1.93-1.22,2.8-.37,.87-.69,1.61-.96,2.22h-3.76c-.27-.61-.59-1.36-.96-2.24-.37-.88-.78-1.82-1.22-2.82-.44-1-.89-2.03-1.36-3.1-.47-1.07-.93-2.09-1.38-3.08-.45-.99-.88-1.91-1.28-2.78-.4-.87-.75-1.59-1.04-2.18-.3,3.2-.52,6.51-.67,9.92-.15,3.41-.28,6.73-.39,9.96h-4.96c.11-2.29,.24-4.67,.39-7.12,.15-2.45,.31-4.89,.49-7.3,.18-2.41,.37-4.75,.59-7.02,.22-2.27,.45-4.36,.69-6.28h4.66Z"/><path d="M213.54,182.14c-.37-1.09-.76-2.17-1.16-3.24-.4-1.07-.79-2.16-1.16-3.28h-11.71c-.37,1.12-.76,2.22-1.14,3.3-.39,1.08-.77,2.15-1.14,3.22h-5.24c1.04-2.96,2.02-5.69,2.96-8.2,.93-2.51,1.84-4.88,2.74-7.12,.89-2.24,1.78-4.37,2.66-6.4,.88-2.03,1.79-4.03,2.72-6h4.81c.93,1.97,1.84,3.97,2.72,6,.88,2.03,1.77,4.16,2.66,6.4,.89,2.24,1.81,4.61,2.76,7.12,.95,2.51,1.94,5.24,2.98,8.2h-5.44Zm-8.18-22.36c-.61,1.41-1.31,3.13-2.1,5.16-.79,2.03-1.61,4.23-2.46,6.6h9.12c-.85-2.37-1.68-4.59-2.48-6.64-.8-2.05-1.49-3.76-2.08-5.12Z"/><path d="M243.87,154.42v4.36h-8.52v23.36h-5.08v-23.36h-8.52v-4.36h22.12Z"/><path d="M252.61,154.42h5.04v27.72h-5.04v-27.72Z"/><path d="M281.35,182.74c-2.08,0-3.95-.32-5.6-.96-1.65-.64-3.05-1.58-4.2-2.82-1.15-1.24-2.03-2.75-2.64-4.54-.61-1.79-.92-3.84-.92-6.16s.35-4.37,1.06-6.16c.71-1.79,1.67-3.3,2.9-4.54,1.23-1.24,2.67-2.18,4.32-2.82s3.43-.96,5.32-.96c1.15,0,2.19,.09,3.12,.26,.93,.17,1.75,.37,2.44,.58,.69,.21,1.27,.44,1.72,.68,.45,.24,.77,.41,.96,.52l-1.48,4.12c-.64-.4-1.55-.78-2.74-1.14-1.19-.36-2.47-.54-3.86-.54-1.2,0-2.32,.21-3.36,.62s-1.94,1.03-2.7,1.86c-.76,.83-1.35,1.87-1.78,3.12-.43,1.25-.64,2.71-.64,4.36,0,1.47,.17,2.81,.5,4.04,.33,1.23,.85,2.29,1.54,3.18,.69,.89,1.57,1.59,2.64,2.08,1.07,.49,2.35,.74,3.84,.74,1.79,0,3.24-.18,4.36-.54,1.12-.36,1.99-.7,2.6-1.02l1.36,4.12c-.32,.21-.75,.43-1.3,.64-.55,.21-1.19,.42-1.94,.62-.75,.2-1.59,.36-2.52,.48s-1.93,.18-3,.18Z"/></g></g></svg>